<svg width="5059" height="904" viewBox="0 0 5059 904" fill="none" xmlns="http://www.w3.org/2000/svg">
<g id="g1s_logo">
<g id="logo-main">
<path d="M414.415 0C484.842 70.4282 485.158 184.415 415.366 255.237L415.372 255.242L53.0592 617.555C-17.3693 547.126 -17.6841 433.138 52.1094 362.317L52.1036 362.311L414.415 0Z" fill="#62BEFF"/>
<path d="M414.413 722.713L480.375 656.751L480.381 656.757C551.202 586.964 665.19 587.279 735.619 657.707L541.559 851.766L541.553 851.761C470.732 921.555 356.744 921.239 286.315 850.811C285.357 849.852 284.413 848.884 283.48 847.91L283.447 847.943L220.354 784.849L220.358 784.845C150.633 714.093 150.881 600.259 221.103 529.815L221.309 529.608L414.413 722.713Z" fill="#62BEFF"/>
</g>
<path id="logo-dark" d="M455.521 295.395L455.526 295.401C526.348 225.609 640.335 225.924 710.763 296.352C711.721 297.311 712.666 298.279 713.598 299.253L713.631 299.22L776.725 362.314L776.72 362.318C846.513 433.139 846.198 547.128 775.77 617.556H775.768L582.663 424.452L516.703 490.412L516.697 490.406C445.876 560.2 331.888 559.885 261.459 489.457L455.521 295.395Z" fill="#004E99"/>
<g id="name">
<path d="M4762.57 778.544V225.149H4575.46V127.179H5058.25V225.149H4872.02V778.544H4762.57Z" fill="black"/>
<path d="M4275.88 783.839C4232.34 783.839 4194.1 779.72 4161.15 771.482C4128.78 762.656 4101.42 747.064 4079.06 724.704C4057.29 701.756 4040.82 668.511 4029.64 624.969C4019.05 581.427 4013.75 524.646 4013.75 454.626C4013.75 384.018 4019.34 326.942 4030.52 283.4C4041.7 239.27 4058.18 205.731 4079.95 182.783C4102.31 159.247 4129.67 143.066 4162.03 134.24C4194.98 125.414 4232.93 121 4275.88 121C4320.01 121 4358.55 125.414 4391.5 134.24C4424.46 143.066 4451.82 159.247 4473.59 182.783C4495.36 205.731 4511.54 239.27 4522.13 283.4C4533.31 326.942 4538.9 384.018 4538.9 454.626C4538.9 524.646 4533.31 581.427 4522.13 624.969C4511.54 668.511 4495.06 701.756 4472.7 724.704C4450.93 747.064 4423.57 762.656 4390.62 771.482C4358.26 779.72 4320.01 783.839 4275.88 783.839ZM4275.88 685.869C4304.72 685.869 4328.84 682.927 4348.26 677.043C4368.26 670.571 4384.15 659.391 4395.92 643.504C4407.69 627.029 4416.22 603.787 4421.51 573.778C4426.81 543.181 4429.46 503.464 4429.46 454.626C4429.46 402.847 4426.51 361.658 4420.63 331.061C4415.34 299.876 4406.8 276.339 4395.04 260.453C4383.27 243.977 4367.67 233.092 4348.26 227.796C4328.84 221.912 4304.72 218.97 4275.88 218.97C4248.82 218.97 4225.58 221.912 4206.16 227.796C4186.74 233.092 4170.85 243.977 4158.5 260.453C4146.73 276.339 4137.9 299.876 4132.02 331.061C4126.14 361.658 4123.19 402.847 4123.19 454.626C4123.19 503.464 4125.55 543.181 4130.25 573.778C4135.55 603.787 4144.08 627.029 4155.85 643.504C4167.62 659.391 4183.21 670.571 4202.63 677.043C4222.63 682.927 4247.05 685.869 4275.88 685.869Z" fill="black"/>
<path d="M3501.72 778.544V127.179H3750.61C3811.8 127.179 3857.11 141.595 3886.53 170.427C3915.95 199.259 3930.66 241.33 3930.66 296.64C3930.66 322.53 3926.54 345.478 3918.31 365.483C3910.66 384.901 3900.06 401.082 3886.53 414.027C3873 426.383 3857.11 434.915 3838.87 439.622C3852.4 443.153 3865.64 448.743 3878.59 456.392C3892.12 463.453 3904.48 473.456 3915.66 486.401C3926.84 499.345 3935.66 515.232 3942.14 534.061C3948.61 552.302 3951.84 573.779 3951.84 598.492C3951.84 643.21 3944.2 678.809 3928.9 705.287C3914.19 731.177 3892.42 750.006 3863.58 761.774C3835.34 772.954 3801.21 778.544 3761.2 778.544H3501.72ZM3610.28 680.574H3757.67C3775.91 680.574 3791.8 677.338 3805.33 670.865C3818.87 664.393 3829.16 654.096 3836.22 639.974C3843.87 625.264 3847.7 605.258 3847.7 579.957C3847.7 559.951 3843.87 543.182 3836.22 529.648C3828.57 516.115 3817.98 505.818 3804.45 498.757C3790.92 491.108 3775.32 487.283 3757.67 487.283H3610.28V680.574ZM3610.28 402.553H3752.38C3774.15 402.553 3791.8 394.609 3805.33 378.722C3818.87 362.247 3825.93 340.77 3826.51 314.292C3827.1 280.753 3819.75 257.511 3804.45 244.566C3789.74 231.621 3771.5 225.149 3749.73 225.149H3610.28V402.553Z" fill="black"/>
<path d="M3151.05 783.839C3107.51 783.839 3069.26 779.72 3036.31 771.482C3003.95 762.656 2976.59 747.064 2954.23 724.704C2932.46 701.756 2915.98 668.511 2904.8 624.969C2894.21 581.427 2888.92 524.646 2888.92 454.626C2888.92 384.018 2894.51 326.942 2905.69 283.4C2916.87 239.27 2933.34 205.731 2955.11 182.783C2977.47 159.247 3004.83 143.066 3037.19 134.24C3070.14 125.414 3108.1 121 3151.05 121C3195.18 121 3233.72 125.414 3266.67 134.24C3299.62 143.066 3326.98 159.247 3348.75 182.783C3370.52 205.731 3386.7 239.27 3397.3 283.4C3408.48 326.942 3414.06 384.018 3414.06 454.626C3414.06 524.646 3408.48 581.427 3397.3 624.969C3386.7 668.511 3370.23 701.756 3347.87 724.704C3326.1 747.064 3298.74 762.656 3265.79 771.482C3233.43 779.72 3195.18 783.839 3151.05 783.839ZM3151.05 685.869C3179.88 685.869 3204.01 682.927 3223.42 677.043C3243.43 670.571 3259.32 659.391 3271.08 643.504C3282.85 627.029 3291.38 603.787 3296.68 573.778C3301.97 543.181 3304.62 503.464 3304.62 454.626C3304.62 402.847 3301.68 361.658 3295.8 331.061C3290.5 299.876 3281.97 276.339 3270.2 260.453C3258.43 243.977 3242.84 233.092 3223.42 227.796C3204.01 221.912 3179.88 218.97 3151.05 218.97C3123.98 218.97 3100.74 221.912 3081.32 227.796C3061.91 233.092 3046.02 243.977 3033.66 260.453C3021.9 276.339 3013.07 299.876 3007.19 331.061C3001.3 361.658 2998.36 402.847 2998.36 454.626C2998.36 503.464 3000.71 543.181 3005.42 573.778C3010.72 603.787 3019.25 627.029 3031.02 643.504C3042.78 659.391 3058.38 670.571 3077.79 677.043C3097.8 682.927 3122.22 685.869 3151.05 685.869Z" fill="black"/>
<path d="M2376.02 778.544V127.179H2640.8C2664.93 127.179 2687.58 130.121 2708.76 136.005C2730.53 141.301 2749.66 151.304 2766.13 166.014C2783.19 180.724 2796.43 201.318 2805.85 227.797C2815.85 253.686 2820.85 287.52 2820.85 329.296C2820.85 361.659 2817.62 388.725 2811.14 410.496C2804.67 431.679 2796.14 449.037 2785.55 462.57C2774.96 476.103 2762.89 486.695 2749.36 494.344C2736.42 501.405 2723.47 507.289 2710.53 511.996L2835.86 778.544H2725.53L2612.56 527.883C2604.32 527.883 2594.61 527.883 2583.43 527.883C2572.84 527.883 2561.66 527.883 2549.89 527.883C2538.13 527.295 2526.65 527 2515.47 527C2504.29 526.412 2494 526.118 2484.58 526.118V778.544H2376.02ZM2484.58 440.505H2622.27C2635.21 440.505 2646.98 439.034 2657.57 436.092C2668.16 432.561 2677.58 426.677 2685.81 418.44C2694.05 410.202 2700.23 399.022 2704.35 384.901C2709.06 370.779 2711.41 352.538 2711.41 330.179C2711.41 308.408 2709.06 290.756 2704.35 277.223C2700.23 263.101 2694.05 252.51 2685.81 245.449C2677.58 237.799 2667.87 232.504 2656.69 229.562C2646.1 226.62 2634.62 225.149 2622.27 225.149H2484.58V440.505Z" fill="black"/>
<path d="M2113.95 783.84C2100.42 783.84 2084.82 783.252 2067.17 782.075C2050.11 781.487 2032.75 780.31 2015.1 778.545C1998.04 777.368 1982.15 775.603 1967.44 773.249C1952.73 770.895 1940.67 768.248 1931.25 765.306V700.875H2135.13C2149.84 700.875 2162.2 699.698 2172.2 697.345C2182.79 694.991 2190.74 690.284 2196.03 683.223C2201.33 676.162 2203.98 665.571 2203.98 651.449V634.68C2203.98 619.969 2198.97 608.496 2188.97 600.258C2179.56 591.432 2162.79 587.019 2138.66 587.019H2067.17C2039.52 587.019 2014.81 583.194 1993.03 575.545C1971.85 567.896 1955.08 554.951 1942.73 536.71C1930.37 518.47 1924.19 493.757 1924.19 462.571V436.093C1924.19 406.084 1929.78 381.371 1940.96 361.954C1952.73 341.948 1971.85 326.944 1998.33 316.941C2025.4 306.35 2061.29 301.054 2106.01 301.054C2124.84 301.054 2145.14 301.937 2166.91 303.702C2188.68 305.467 2209.57 307.821 2229.57 310.763C2249.58 313.116 2265.46 316.058 2277.23 319.589V384.019H2084.82C2063.05 384.019 2046.28 387.844 2034.52 395.493C2023.34 402.554 2017.75 416.087 2017.75 436.093V452.862C2017.75 465.807 2020.4 475.516 2025.69 481.989C2030.99 488.461 2038.93 492.874 2049.52 495.228C2060.11 497.581 2072.76 498.758 2087.47 498.758H2160.73C2207.21 498.758 2241.63 509.349 2263.99 530.532C2286.35 551.715 2297.53 581.723 2297.53 620.558V659.393C2297.53 691.167 2290.18 716.174 2275.47 734.414C2260.76 752.655 2239.57 765.6 2211.92 773.249C2184.85 780.31 2152.2 783.84 2113.95 783.84Z" fill="black"/>
<path d="M1734.31 778.543V226.031L1611.63 248.096V178.37L1745.78 121H1843.75V778.543H1734.31Z" fill="black"/>
<path d="M1262.88 782.956C1221.69 782.956 1187.86 775.601 1161.38 760.891C1135.49 746.181 1114.9 724.704 1099.6 696.461C1084.89 668.217 1074.3 633.501 1067.83 592.313C1061.94 551.125 1059 504.346 1059 451.978C1059 398.433 1062.24 351.067 1068.71 309.879C1075.77 268.69 1087.83 234.269 1104.9 206.613C1121.96 178.37 1145.49 157.187 1175.5 143.066C1206.1 128.356 1245.23 121 1292.89 121C1319.96 121 1345.85 122.177 1370.56 124.531C1395.27 126.296 1419.1 129.238 1442.05 133.357C1465 137.476 1487.36 142.183 1509.13 147.479V231.326C1496.77 229.561 1480 227.796 1458.82 226.031C1438.22 224.266 1415.28 222.795 1389.98 221.618C1364.67 219.853 1338.49 218.97 1311.42 218.97C1272.59 218.97 1242.88 226.619 1222.28 241.918C1201.69 256.628 1187.57 281.047 1179.92 315.174C1172.27 349.302 1168.44 395.197 1168.44 452.861C1168.44 498.168 1170.5 535.826 1174.62 565.835C1178.74 595.255 1185.51 618.791 1194.92 636.443C1204.92 653.507 1218.16 665.569 1234.64 672.63C1251.7 679.103 1272.3 682.339 1296.42 682.339C1322.31 682.339 1347.32 679.985 1371.44 675.278C1396.15 669.982 1416.75 664.393 1433.22 658.509V508.465H1301.72V423.735C1313.48 421.97 1327.61 420.499 1344.08 419.322C1361.14 418.145 1378.8 417.262 1397.04 416.674C1415.28 415.497 1433.22 414.909 1450.88 414.909C1468.53 414.909 1484.41 415.203 1498.54 415.791C1513.25 415.791 1526.48 416.38 1538.25 417.557V778.543H1456.17L1441.17 733.53C1422.93 744.122 1397.92 755.007 1366.15 766.187C1334.37 777.366 1299.95 782.956 1262.88 782.956Z" fill="black"/>
</g>
</g>
</svg>
