<svg width="1001" height="1091" viewBox="0 0 1001 1091" fill="none" xmlns="http://www.w3.org/2000/svg">
<g id="g1s_logo_wh">
<g id="Group 53">
<g id="logo-main">
<path d="M500.212 0C585.22 85.0091 585.602 222.595 501.36 308.079L501.367 308.086L64.0441 745.408C-20.9652 660.399 -21.3452 522.812 62.8977 437.328L62.8908 437.321L500.212 0Z" fill="white"/>
<path d="M500.21 872.337L579.828 792.72L579.835 792.726C665.318 708.484 802.906 708.864 887.915 793.873L653.679 1028.11L653.672 1028.1C568.189 1112.35 430.601 1111.97 345.592 1026.96C344.435 1025.8 343.295 1024.63 342.17 1023.45L342.13 1023.49L265.974 947.338L265.979 947.333C181.819 861.933 182.119 724.532 266.878 639.503L267.127 639.254L500.21 872.337Z" fill="white"/>
</g>
<path id="logo-dark" d="M549.828 356.552L549.835 356.558C635.318 272.317 772.904 272.698 857.914 357.707C859.07 358.863 860.21 360.032 861.336 361.208L861.375 361.169L937.531 437.324L937.526 437.33C1021.77 522.813 1021.39 660.401 936.38 745.41H936.376L703.293 512.327L623.677 591.943L623.67 591.936C538.187 676.179 400.6 675.799 315.59 590.79L549.828 356.552Z" fill="white"/>
</g>
</g>
</svg>
