<svg width="1000" height="1091" viewBox="0 0 1000 1091" fill="none" xmlns="http://www.w3.org/2000/svg">
<path d="M500 0C584.973 85.0091 585.354 222.595 501.148 308.079L501.155 308.086L64.0171 745.408C-20.9564 660.399 -21.3362 522.811 62.8711 437.328L62.8642 437.321L500 0Z" fill="#62BEFF"/>
<path d="M499.999 872.337L579.583 792.719L579.59 792.726C665.037 708.484 802.566 708.864 887.54 793.873L653.403 1028.11L653.396 1028.1C567.949 1112.35 430.419 1111.96 345.446 1026.96C344.289 1025.8 343.15 1024.63 342.025 1023.45L341.985 1023.49L265.861 947.338L265.867 947.333C181.742 861.933 182.042 724.532 266.766 639.503L267.014 639.254L499.999 872.337Z" fill="#62BEFF"/>
<path d="M549.595 356.551L549.602 356.558C635.049 272.317 772.577 272.698 857.551 357.707C858.707 358.863 859.846 360.032 860.971 361.208L861.011 361.168L937.135 437.324L937.129 437.329C1021.34 522.813 1020.96 660.4 935.984 745.41H935.98L702.996 512.327L623.413 591.943L623.406 591.936C537.959 676.179 400.43 675.799 315.456 590.789L549.595 356.551Z" fill="#004E99"/>
</svg>
