<svg width="500" height="500" viewBox="0 0 500 500" fill="none" xmlns="http://www.w3.org/2000/svg">
<g id="g1s_logo_ORIG">
<path id="logo_dark" d="M275.83 166.153C314.687 127.295 377.688 127.295 416.545 166.153L450.642 200.249C489.5 239.107 489.5 302.108 450.642 340.965L346.188 236.511L312.091 270.607C273.233 309.465 210.233 309.465 171.375 270.607L275.83 166.153Z" fill="#004E99"/>
<g id="logo_main">
<path d="M250.393 0C289.25 38.8576 289.25 101.858 250.393 140.716L50.1432 340.965C11.2856 302.108 11.2856 239.107 50.1432 200.249L250.393 0Z" fill="#62BEFF"/>
<path d="M250.393 400.499L284.489 366.402C323.347 327.545 386.347 327.545 425.205 366.402L320.751 470.857C281.893 509.714 218.892 509.714 180.035 470.857L145.938 436.76C107.081 397.903 107.081 334.902 145.938 296.044L250.393 400.499Z" fill="#62BEFF"/>
</g>
</g>
</svg>
