<svg width="1412" height="250" viewBox="0 0 1412 250" fill="none" xmlns="http://www.w3.org/2000/svg">
<g id="(WEB)g1s_logo+name_ORIG_EN">
<g id="logo_symbol">
<path id="symbol_dark" d="M137.915 83.0765C157.344 63.6477 188.844 63.6477 208.273 83.0765L225.321 100.125C244.75 119.554 244.75 151.054 225.321 170.483L173.094 118.255L156.045 135.304C136.617 154.732 105.116 154.732 85.6875 135.304L137.915 83.0765Z" fill="#004E99"/>
<g id="symbol_main">
<path d="M125.196 0C144.625 19.4288 144.625 50.9291 125.196 70.3579L25.0716 170.483C5.6428 151.054 5.6428 119.554 25.0716 100.125L125.196 0Z" fill="#62BEFF"/>
<path d="M125.196 200.249L142.245 183.201C161.673 163.772 193.174 163.772 212.603 183.201L160.375 235.428C140.946 254.857 109.446 254.857 90.0174 235.428L72.9691 218.38C53.5403 198.951 53.5403 167.451 72.9691 148.022L125.196 200.249Z" fill="#62BEFF"/>
</g>
</g>
<g id="logo_text">
<path d="M1331.27 214.546V62.5966H1280.18V35.6965H1412V62.5966H1361.15V214.546H1331.27Z" fill="black"/>
<path d="M1198.37 216C1186.49 216 1176.04 214.869 1167.04 212.607C1158.21 210.184 1150.74 205.902 1144.63 199.763C1138.69 193.462 1134.19 184.334 1131.14 172.378C1128.24 160.423 1126.8 144.832 1126.8 125.606C1126.8 106.218 1128.32 90.5468 1131.38 78.5912C1134.43 66.474 1138.93 57.265 1144.87 50.964C1150.98 44.5016 1158.45 40.0586 1167.29 37.6352C1176.28 35.2117 1186.65 34 1198.37 34C1210.42 34 1220.95 35.2117 1229.94 37.6352C1238.94 40.0586 1246.41 44.5016 1252.36 50.964C1258.3 57.265 1262.72 66.474 1265.61 78.5912C1268.66 90.5468 1270.19 106.218 1270.19 125.606C1270.19 144.832 1268.66 160.423 1265.61 172.378C1262.72 184.334 1258.22 193.462 1252.12 199.763C1246.17 205.902 1238.7 210.184 1229.7 212.607C1220.87 214.869 1210.42 216 1198.37 216ZM1198.37 189.1C1206.25 189.1 1212.83 188.292 1218.14 186.676C1223.6 184.899 1227.94 181.83 1231.15 177.467C1234.36 172.944 1236.69 166.562 1238.14 158.322C1239.58 149.921 1240.31 139.016 1240.31 125.606C1240.31 111.388 1239.5 100.079 1237.9 91.6777C1236.45 83.1149 1234.12 76.6525 1230.91 72.2903C1227.7 67.7665 1223.44 64.7776 1218.14 63.3236C1212.83 61.7079 1206.25 60.9001 1198.37 60.9001C1190.98 60.9001 1184.64 61.7079 1179.34 63.3236C1174.03 64.7776 1169.7 67.7665 1166.32 72.2903C1163.11 76.6525 1160.7 83.1149 1159.09 91.6777C1157.49 100.079 1156.68 111.388 1156.68 125.606C1156.68 139.016 1157.32 149.921 1158.61 158.322C1160.06 166.562 1162.39 172.944 1165.6 177.467C1168.81 181.83 1173.07 184.899 1178.37 186.676C1183.83 188.292 1190.5 189.1 1198.37 189.1Z" fill="black"/>
<path d="M986.987 214.546V35.6965H1054.95C1071.66 35.6965 1084.03 39.6548 1092.06 47.5713C1100.09 55.4879 1104.11 67.0396 1104.11 82.2265C1104.11 89.3352 1102.99 95.6361 1100.74 101.129C1098.65 106.461 1095.76 110.904 1092.06 114.458C1088.37 117.851 1084.03 120.194 1079.05 121.486C1082.74 122.455 1086.36 123.99 1089.89 126.091C1093.59 128.029 1096.96 130.776 1100.01 134.33C1103.07 137.885 1105.48 142.247 1107.24 147.417C1109.01 152.425 1109.89 158.322 1109.89 165.108C1109.89 177.387 1107.81 187.161 1103.63 194.431C1099.61 201.54 1093.67 206.71 1085.8 209.941C1078.08 213.011 1068.77 214.546 1057.84 214.546H986.987ZM1016.63 187.646H1056.88C1061.86 187.646 1066.19 186.757 1069.89 184.98C1073.58 183.203 1076.4 180.376 1078.32 176.498C1080.41 172.459 1081.46 166.966 1081.46 160.019C1081.46 154.526 1080.41 149.921 1078.32 146.205C1076.24 142.489 1073.34 139.662 1069.65 137.723C1065.95 135.623 1061.7 134.573 1056.88 134.573H1016.63V187.646ZM1016.63 111.308H1055.43C1061.37 111.308 1066.19 109.127 1069.89 104.764C1073.58 100.241 1075.51 94.3436 1075.67 87.0733C1075.83 77.8643 1073.83 71.4826 1069.65 67.9282C1065.63 64.3738 1060.65 62.5966 1054.71 62.5966H1016.63V111.308Z" fill="black"/>
<path d="M891.237 216C879.348 216 868.905 214.869 859.907 212.607C851.071 210.184 843.6 205.902 837.495 199.763C831.55 193.462 827.052 184.334 823.999 172.378C821.107 160.423 819.661 144.832 819.661 125.606C819.661 106.218 821.187 90.5468 824.24 78.5912C827.293 66.474 831.791 57.265 837.736 50.964C843.841 44.5016 851.312 40.0586 860.148 37.6352C869.145 35.2117 879.508 34 891.237 34C903.287 34 913.81 35.2117 922.807 37.6352C931.804 40.0586 939.275 44.5016 945.22 50.964C951.164 57.265 955.583 66.474 958.475 78.5912C961.527 90.5468 963.053 106.218 963.053 125.606C963.053 144.832 961.527 160.423 958.475 172.378C955.583 184.334 951.084 193.462 944.979 199.763C939.034 205.902 931.563 210.184 922.566 212.607C913.73 214.869 903.287 216 891.237 216ZM891.237 189.1C899.109 189.1 905.697 188.292 910.998 186.676C916.461 184.899 920.799 181.83 924.012 177.467C927.225 172.944 929.555 166.562 931.001 158.322C932.447 149.921 933.17 139.016 933.17 125.606C933.17 111.388 932.367 100.079 930.76 91.6777C929.314 83.1149 926.984 76.6525 923.771 72.2903C920.558 67.7665 916.3 64.7776 910.998 63.3236C905.697 61.7079 899.109 60.9001 891.237 60.9001C883.846 60.9001 877.5 61.7079 872.198 63.3236C866.896 64.7776 862.558 67.7665 859.184 72.2903C855.971 76.6525 853.561 83.1149 851.954 91.6777C850.348 100.079 849.544 111.388 849.544 125.606C849.544 139.016 850.187 149.921 851.472 158.322C852.918 166.562 855.248 172.944 858.461 177.467C861.675 181.83 865.932 184.899 871.234 186.676C876.697 188.292 883.364 189.1 891.237 189.1Z" fill="black"/>
<path d="M679.614 214.546V35.6965H751.913C758.5 35.6965 764.686 36.5043 770.47 38.1199C776.414 39.574 781.636 42.3206 786.134 46.3596C790.794 50.3987 794.409 56.0534 796.979 63.3237C799.711 70.4324 801.076 79.7222 801.076 91.1932C801.076 100.079 800.193 107.511 798.425 113.489C796.658 119.305 794.328 124.071 791.436 127.787C788.544 131.503 785.251 134.411 781.556 136.511C778.021 138.45 774.486 140.066 770.952 141.358L805.173 214.546H775.049L744.201 145.72C741.952 145.72 739.301 145.72 736.248 145.72C733.356 145.72 730.304 145.72 727.091 145.72C723.877 145.559 720.744 145.478 717.692 145.478C714.639 145.317 711.827 145.236 709.257 145.236V214.546H679.614ZM709.257 121.728H746.852C750.387 121.728 753.6 121.325 756.492 120.517C759.384 119.547 761.955 117.932 764.204 115.67C766.453 113.408 768.14 110.338 769.265 106.461C770.55 102.583 771.193 97.5749 771.193 91.4355C771.193 85.4577 770.55 80.6108 769.265 76.8949C768.14 73.0174 766.453 70.1093 764.204 68.1705C761.955 66.0702 759.304 64.6162 756.251 63.8083C753.359 63.0005 750.226 62.5966 746.852 62.5966H709.257V121.728Z" fill="black"/>
<path d="M608.056 216C604.36 216 600.103 215.838 595.283 215.515C590.624 215.354 585.884 215.031 581.064 214.546C576.405 214.223 572.067 213.738 568.05 213.092C564.034 212.446 560.74 211.719 558.17 210.911V193.22H613.84C617.856 193.22 621.23 192.897 623.961 192.25C626.853 191.604 629.022 190.312 630.468 188.373C631.914 186.434 632.637 183.526 632.637 179.649V175.044C632.637 171.005 631.272 167.854 628.54 165.593C625.97 163.169 621.391 161.957 614.804 161.957H595.283C587.732 161.957 580.984 160.907 575.039 158.807C569.255 156.707 564.676 153.152 561.303 148.144C557.929 143.135 556.242 136.35 556.242 127.787V120.517C556.242 112.277 557.768 105.491 560.821 100.16C564.034 94.6668 569.255 90.5469 576.485 87.8004C583.876 84.8922 593.676 83.4382 605.887 83.4382C611.028 83.4382 616.571 83.6805 622.515 84.1652C628.46 84.6499 634.164 85.2961 639.626 86.104C645.089 86.7502 649.427 87.558 652.64 88.5274V106.218H600.103C594.158 106.218 589.579 107.269 586.366 109.369C583.313 111.308 581.787 115.024 581.787 120.517V125.121C581.787 128.676 582.51 131.341 583.956 133.119C585.402 134.896 587.571 136.107 590.463 136.754C593.355 137.4 596.809 137.723 600.826 137.723H620.828C633.521 137.723 642.92 140.631 649.025 146.447C655.13 152.264 658.183 160.503 658.183 171.166V181.83C658.183 190.554 656.174 197.42 652.158 202.429C648.141 207.437 642.357 210.992 634.806 213.092C627.416 215.031 618.499 216 608.056 216Z" fill="black"/>
<path d="M504.394 214.546V62.8389L470.895 68.8975V49.7523L507.527 34H534.277V214.546H504.394Z" fill="black"/>
<path d="M375.67 215.758C364.424 215.758 355.185 213.738 347.955 209.699C340.886 205.66 335.263 199.763 331.086 192.008C327.069 184.253 324.177 174.721 322.41 163.411C320.803 152.102 320 139.258 320 124.879C320 110.177 320.884 97.1709 322.651 85.8615C324.579 74.5522 327.873 65.1008 332.532 57.5073C337.191 49.7523 343.618 43.9361 351.811 40.0586C360.166 36.0195 370.85 34 383.864 34C391.254 34 398.324 34.3231 405.071 34.9694C411.819 35.4541 418.326 36.2619 424.592 37.3928C430.858 38.5238 436.963 39.8163 442.908 41.2703V64.293C439.534 63.8083 434.955 63.3236 429.171 62.8389C423.548 62.3542 417.282 61.9503 410.373 61.6272C403.465 61.1425 396.315 60.9002 388.925 60.9002C378.321 60.9002 370.207 63.0005 364.584 67.2011C358.961 71.2401 355.105 77.945 353.016 87.3156C350.928 96.6862 349.883 109.288 349.883 125.121C349.883 137.561 350.446 147.901 351.57 156.141C352.695 164.219 354.543 170.682 357.113 175.529C359.845 180.214 363.46 183.526 367.958 185.465C372.617 187.242 378.241 188.13 384.828 188.13C391.897 188.13 398.725 187.484 405.312 186.192C412.06 184.738 417.684 183.203 422.182 181.587V140.389H386.274V117.124C389.487 116.639 393.343 116.235 397.842 115.912C402.501 115.589 407.321 115.347 412.301 115.185C417.282 114.862 422.182 114.7 427.002 114.7C431.822 114.7 436.16 114.781 440.016 114.943C444.032 114.943 447.647 115.104 450.861 115.427V214.546H428.448L424.351 202.186C419.371 205.094 412.542 208.083 403.866 211.153C395.191 214.223 385.792 215.758 375.67 215.758Z" fill="black"/>
</g>
</g>
</svg>
