<svg width="552" height="92" viewBox="0 0 552 92" fill="none" xmlns="http://www.w3.org/2000/svg">
<path d="M281.068 45.6591C280.811 44.7045 280.432 43.8636 279.932 43.1364C279.432 42.3939 278.818 41.7652 278.091 41.25C277.364 40.7348 276.53 40.3485 275.591 40.0909C274.652 39.8182 273.621 39.6818 272.5 39.6818C270.242 39.6818 268.288 40.2273 266.636 41.3182C265 42.4091 263.735 44 262.841 46.0909C261.947 48.1667 261.5 50.6894 261.5 53.6591C261.5 56.6439 261.932 59.1894 262.795 61.2955C263.659 63.4015 264.909 65.0076 266.545 66.1136C268.182 67.2197 270.167 67.7727 272.5 67.7727C274.561 67.7727 276.303 67.4394 277.727 66.7727C279.167 66.0909 280.258 65.1288 281 63.8864C281.742 62.6439 282.114 61.1818 282.114 59.5L284.205 59.75H272.886V51.5455H292.955V57.7045C292.955 61.8712 292.068 65.4394 290.295 68.4091C288.538 71.3788 286.114 73.6591 283.023 75.25C279.947 76.8409 276.409 77.6364 272.409 77.6364C267.97 77.6364 264.068 76.6742 260.705 74.75C257.341 72.8258 254.72 70.0833 252.841 66.5227C250.962 62.947 250.023 58.7045 250.023 53.7955C250.023 49.9773 250.591 46.5909 251.727 43.6364C252.864 40.6667 254.447 38.1515 256.477 36.0909C258.523 34.0303 260.886 32.4697 263.568 31.4091C266.265 30.3485 269.167 29.8182 272.273 29.8182C274.97 29.8182 277.477 30.2045 279.795 30.9773C282.129 31.75 284.189 32.8409 285.977 34.25C287.78 35.6591 289.242 37.3333 290.364 39.2727C291.485 41.2121 292.182 43.3409 292.455 45.6591H281.068ZM321.017 30.4545V77H309.79V40.9545H309.517L299.108 47.3182V37.5909L310.585 30.4545H321.017ZM361.875 52.75L351.67 53.0227C351.564 52.2955 351.277 51.6515 350.807 51.0909C350.337 50.5152 349.723 50.0682 348.966 49.75C348.223 49.4167 347.36 49.25 346.375 49.25C345.087 49.25 343.989 49.5076 343.08 50.0227C342.186 50.5379 341.746 51.2348 341.761 52.1136C341.746 52.7955 342.019 53.3864 342.58 53.8864C343.155 54.3864 344.178 54.7879 345.648 55.0909L352.375 56.3636C355.86 57.0303 358.451 58.1364 360.148 59.6818C361.86 61.2273 362.723 63.2727 362.739 65.8182C362.723 68.2121 362.011 70.2955 360.602 72.0682C359.208 73.8409 357.299 75.2197 354.875 76.2045C352.451 77.1742 349.678 77.6591 346.557 77.6591C341.572 77.6591 337.64 76.6364 334.761 74.5909C331.898 72.5303 330.261 69.7727 329.852 66.3182L340.83 66.0455C341.072 67.3182 341.701 68.2879 342.716 68.9545C343.731 69.6212 345.027 69.9545 346.602 69.9545C348.027 69.9545 349.186 69.6894 350.08 69.1591C350.973 68.6288 351.428 67.9242 351.443 67.0455C351.428 66.2576 351.08 65.6288 350.398 65.1591C349.716 64.6742 348.648 64.2955 347.193 64.0227L341.102 62.8636C337.602 62.2273 334.996 61.053 333.284 59.3409C331.572 57.6136 330.723 55.4167 330.739 52.75C330.723 50.4167 331.345 48.4242 332.602 46.7727C333.86 45.1061 335.648 43.8333 337.966 42.9545C340.284 42.0758 343.019 41.6364 346.17 41.6364C350.898 41.6364 354.625 42.6288 357.352 44.6136C360.08 46.5833 361.587 49.2955 361.875 52.75ZM368.21 77V30.4545H387.438C390.922 30.4545 393.93 31.0833 396.46 32.3409C399.006 33.5833 400.968 35.3712 402.347 37.7045C403.725 40.0227 404.415 42.7727 404.415 45.9545C404.415 49.1818 403.71 51.9242 402.301 54.1818C400.892 56.4242 398.892 58.1364 396.301 59.3182C393.71 60.4848 390.642 61.0682 387.097 61.0682H374.938V52.2045H385.006C386.703 52.2045 388.119 51.9848 389.256 51.5455C390.407 51.0909 391.278 50.4091 391.869 49.5C392.46 48.5758 392.756 47.3939 392.756 45.9545C392.756 44.5151 392.46 43.3258 391.869 42.3864C391.278 41.4318 390.407 40.7197 389.256 40.25C388.104 39.7652 386.688 39.5227 385.006 39.5227H379.46V77H368.21ZM394.415 55.7273L406.006 77H393.733L382.369 55.7273H394.415ZM426.193 77.6591C422.527 77.6591 419.375 76.9091 416.739 75.4091C414.117 73.8939 412.095 71.7879 410.67 69.0909C409.261 66.3788 408.557 63.2348 408.557 59.6591C408.557 56.0682 409.261 52.9242 410.67 50.2273C412.095 47.5152 414.117 45.4091 416.739 43.9091C419.375 42.3939 422.527 41.6364 426.193 41.6364C429.86 41.6364 433.004 42.3939 435.625 43.9091C438.261 45.4091 440.284 47.5152 441.693 50.2273C443.117 52.9242 443.83 56.0682 443.83 59.6591C443.83 63.2348 443.117 66.3788 441.693 69.0909C440.284 71.7879 438.261 73.8939 435.625 75.4091C433.004 76.9091 429.86 77.6591 426.193 77.6591ZM426.261 69.2727C427.595 69.2727 428.723 68.8636 429.648 68.0455C430.572 67.2273 431.277 66.0909 431.761 64.6364C432.261 63.1818 432.511 61.5 432.511 59.5909C432.511 57.6515 432.261 55.9545 431.761 54.5C431.277 53.0455 430.572 51.9091 429.648 51.0909C428.723 50.2727 427.595 49.8636 426.261 49.8636C424.883 49.8636 423.716 50.2727 422.761 51.0909C421.822 51.9091 421.102 53.0455 420.602 54.5C420.117 55.9545 419.875 57.6515 419.875 59.5909C419.875 61.5 420.117 63.1818 420.602 64.6364C421.102 66.0909 421.822 67.2273 422.761 68.0455C423.716 68.8636 424.883 69.2727 426.261 69.2727ZM449.523 77V30.4545H460.636V48.0682H460.864C461.318 47.0076 461.962 45.9848 462.795 45C463.644 44.0152 464.72 43.2121 466.023 42.5909C467.341 41.9545 468.917 41.6364 470.75 41.6364C473.174 41.6364 475.439 42.2727 477.545 43.5455C479.667 44.8182 481.379 46.7803 482.682 49.4318C483.985 52.0833 484.636 55.4621 484.636 59.5682C484.636 63.5227 484.008 66.8333 482.75 69.5C481.508 72.1667 479.826 74.1667 477.705 75.5C475.598 76.8333 473.258 77.5 470.682 77.5C468.924 77.5 467.402 77.2121 466.114 76.6364C464.826 76.0606 463.742 75.303 462.864 74.3636C462 73.4242 461.333 72.4167 460.864 71.3409H460.523V77H449.523ZM460.409 59.5455C460.409 61.4242 460.659 63.0606 461.159 64.4545C461.674 65.8485 462.409 66.9318 463.364 67.7045C464.333 68.4621 465.492 68.8409 466.841 68.8409C468.205 68.8409 469.364 68.4621 470.318 67.7045C471.273 66.9318 471.992 65.8485 472.477 64.4545C472.977 63.0606 473.227 61.4242 473.227 59.5455C473.227 57.6667 472.977 56.0379 472.477 54.6591C471.992 53.2803 471.273 52.2121 470.318 51.4545C469.379 50.697 468.22 50.3182 466.841 50.3182C465.477 50.3182 464.318 50.6894 463.364 51.4318C462.409 52.1742 461.674 53.2348 461.159 54.6136C460.659 55.9924 460.409 57.6364 460.409 59.5455ZM506.756 77.6591C503.089 77.6591 499.938 76.9091 497.301 75.4091C494.68 73.8939 492.657 71.7879 491.233 69.0909C489.824 66.3788 489.119 63.2348 489.119 59.6591C489.119 56.0682 489.824 52.9242 491.233 50.2273C492.657 47.5152 494.68 45.4091 497.301 43.9091C499.938 42.3939 503.089 41.6364 506.756 41.6364C510.422 41.6364 513.566 42.3939 516.188 43.9091C518.824 45.4091 520.847 47.5152 522.256 50.2273C523.68 52.9242 524.392 56.0682 524.392 59.6591C524.392 63.2348 523.68 66.3788 522.256 69.0909C520.847 71.7879 518.824 73.8939 516.188 75.4091C513.566 76.9091 510.422 77.6591 506.756 77.6591ZM506.824 69.2727C508.157 69.2727 509.286 68.8636 510.21 68.0455C511.134 67.2273 511.839 66.0909 512.324 64.6364C512.824 63.1818 513.074 61.5 513.074 59.5909C513.074 57.6515 512.824 55.9545 512.324 54.5C511.839 53.0455 511.134 51.9091 510.21 51.0909C509.286 50.2727 508.157 49.8636 506.824 49.8636C505.445 49.8636 504.278 50.2727 503.324 51.0909C502.384 51.9091 501.665 53.0455 501.165 54.5C500.68 55.9545 500.438 57.6515 500.438 59.5909C500.438 61.5 500.68 63.1818 501.165 64.6364C501.665 66.0909 502.384 67.2273 503.324 68.0455C504.278 68.8636 505.445 69.2727 506.824 69.2727ZM549.79 42.0909V50.2727H527.767V42.0909H549.79ZM532.381 33.7273H543.494V66.0227C543.494 66.7045 543.6 67.2576 543.812 67.6818C544.04 68.0909 544.366 68.3864 544.79 68.5682C545.214 68.7348 545.722 68.8182 546.312 68.8182C546.737 68.8182 547.184 68.7803 547.653 68.7045C548.138 68.6136 548.502 68.5379 548.744 68.4773L550.426 76.5C549.896 76.6515 549.146 76.8409 548.176 77.0682C547.222 77.2955 546.078 77.4394 544.744 77.5C542.138 77.6212 539.903 77.3182 538.04 76.5909C536.191 75.8485 534.775 74.697 533.79 73.1364C532.82 71.5758 532.35 69.6136 532.381 67.25V33.7273Z" fill="#62BEFF"/>
<path d="M0 0C29 4 93 9.5 130 11C186.333 11 232 29.1325 232 51.5C232 73.8675 186.333 92 130 92C73.667 92 28 73.8675 28 51.5C28 18 3.33333 2.83333 0 0ZM107.272 27.8184C104.167 27.8184 101.265 28.3486 98.5684 29.4092C95.8866 30.4698 93.523 32.0303 91.4775 34.0908C89.4472 36.1514 87.8639 38.667 86.7275 41.6367C85.5912 44.5912 85.0225 47.9778 85.0225 51.7959C85.0225 56.7047 85.9622 60.9469 87.8408 64.5225C89.7195 68.0829 92.3406 70.8258 95.7041 72.75C99.0677 74.6742 102.97 75.6367 107.409 75.6367C111.409 75.6367 114.947 74.8408 118.022 73.25C121.113 71.6591 123.538 69.3789 125.296 66.4092C127.069 63.4395 127.954 59.8707 127.954 55.7041V49.5459H107.887V57.75H117.11C117.075 59.3271 116.705 60.7063 116 61.8867C115.258 63.1289 114.167 64.0907 112.728 64.7725C111.303 65.4391 109.561 65.7725 107.5 65.7725C105.167 65.7725 103.182 65.2193 101.546 64.1133C99.9097 63.0073 98.6595 61.4017 97.7959 59.2959C96.9323 57.1899 96.5 54.644 96.5 51.6592C96.5 48.6895 96.9469 46.1666 97.8408 44.0908C98.7348 41.9999 100 40.4093 101.637 39.3184C103.288 38.2275 105.243 37.6816 107.5 37.6816C108.621 37.6816 109.651 37.8181 110.591 38.0908C111.53 38.3484 112.364 38.7349 113.091 39.25C113.818 39.7652 114.432 40.3943 114.932 41.1367C115.432 41.864 115.811 42.7047 116.068 43.6592H127.454C127.181 41.341 126.484 39.2119 125.363 37.2725C124.242 35.3333 122.78 33.659 120.978 32.25C119.19 30.841 117.129 29.7503 114.796 28.9775C112.478 28.2048 109.969 27.8184 107.272 27.8184ZM145.585 28.4541L134.108 35.5908V45.3184L144.517 38.9541H144.79V75H156.017V28.4541H145.585Z" fill="#62BEFF"/>
</svg>
